<svg id="Layer_1" data-name="Layer 1" xmlns="http://www.w3.org/2000/svg" viewBox="0 0 160 44"><title>google-play-button</title><rect width="160" height="44" rx="4"/><path d="M52.16,15.85a1,1,0,0,0-1.48,0L47.82,18.7l-.13.13A12.64,12.64,0,0,0,42,17.55h-.07a12.64,12.64,0,0,0-5.7,1.28l-.13-.13-2.86-2.85a1.05,1.05,0,0,0-1.49,1.48l2.77,2.77a11.38,11.38,0,0,0-2.4,2.15,12.51,12.51,0,0,0-2.9,7.39s0,.06,0,.09c0,.19,0,.38,0,.58H54.72c0-.2,0-.39,0-.58a.28.28,0,0,1,0-.09,12.51,12.51,0,0,0-2.9-7.39,11.38,11.38,0,0,0-2.4-2.15l2.76-2.77A1,1,0,0,0,52.16,15.85ZM36.63,26.59a1.6,1.6,0,1,1,1.6-1.6A1.6,1.6,0,0,1,36.63,26.59Zm10.65,0a1.6,1.6,0,1,1,0-3.19,1.6,1.6,0,0,1,0,3.19Z" fill="#fff"/><path d="M66.94,16.91V10.7h1.9a3.08,3.08,0,0,1,2.29.86A3,3,0,0,1,72,13.8a3,3,0,0,1-.86,2.26,3.12,3.12,0,0,1-2.29.85Zm.8-5.45v4.69h1.1a2.16,2.16,0,0,0,2.34-2.35,2.17,2.17,0,0,0-2.34-2.34Z" fill="#fff"/><path d="M73.83,11.19a.54.54,0,0,1-.16.4.56.56,0,0,1-.4.17.58.58,0,0,1-.57-.57.56.56,0,0,1,.17-.4.54.54,0,0,1,.4-.16.55.55,0,0,1,.56.56Zm-.16,1.47v4.25h-.8V12.66Z" fill="#fff"/><path d="M75.51,16.91h-.8V12.66h.76v.69h0a1.12,1.12,0,0,1,.5-.57,1.35,1.35,0,0,1,.74-.24,1.49,1.49,0,0,1,.59.1l-.25.77a1.27,1.27,0,0,0-.46-.06,1,1,0,0,0-.79.37,1.21,1.21,0,0,0-.33.85Z" fill="#fff"/><path d="M79.51,17.05A2,2,0,0,1,78,16.41a2.49,2.49,0,0,1,0-3.24,2,2,0,0,1,1.51-.65,1.94,1.94,0,0,1,1.51.61,2.47,2.47,0,0,1,.56,1.72v.08H78.17a1.38,1.38,0,0,0,.42,1,1.35,1.35,0,0,0,2.15-.38l.71.34a2.1,2.1,0,0,1-1.94,1.15Zm-1.28-2.78h2.44a1,1,0,0,0-.36-.73,1.29,1.29,0,0,0-.87-.29,1.15,1.15,0,0,0-.78.28A1.29,1.29,0,0,0,78.23,14.27Z" fill="#fff"/><path d="M84.24,17.05a2.07,2.07,0,0,1-1.57-.64,2.26,2.26,0,0,1-.62-1.63,2.22,2.22,0,0,1,.62-1.62,2.07,2.07,0,0,1,1.57-.64,2,2,0,0,1,1.13.33,1.89,1.89,0,0,1,.73.89l-.73.31a1.19,1.19,0,0,0-1.19-.8,1.23,1.23,0,0,0-.94.44,1.73,1.73,0,0,0,0,2.19,1.23,1.23,0,0,0,.94.44,1.26,1.26,0,0,0,1.24-.8l.71.31a1.85,1.85,0,0,1-.74.89A2,2,0,0,1,84.24,17.05Z" fill="#fff"/><path d="M88.46,17a1.22,1.22,0,0,1-.86-.32,1.16,1.16,0,0,1-.35-.9V13.39H86.5v-.73h.75v-1.3H88v1.3h1v.73H88V15.5a.77.77,0,0,0,.17.58.53.53,0,0,0,.37.15.58.58,0,0,0,.19,0l.17-.05.25.71A2.29,2.29,0,0,1,88.46,17Z" fill="#fff"/><path d="M93.54,17.05a1.88,1.88,0,0,1-1.44-.66,2.37,2.37,0,0,1-.59-1.61,2.34,2.34,0,0,1,.59-1.6,1.9,1.9,0,0,1,2.29-.46,1.48,1.48,0,0,1,.6.53h0l0-.59v-2h.79v6.21H95v-.59h0a1.48,1.48,0,0,1-.6.53A1.87,1.87,0,0,1,93.54,17.05Zm.13-.73a1.23,1.23,0,0,0,1-.42A1.61,1.61,0,0,0,95,14.78a1.59,1.59,0,0,0-.39-1.1,1.22,1.22,0,0,0-1-.43,1.25,1.25,0,0,0-1,.43,1.76,1.76,0,0,0,0,2.21A1.25,1.25,0,0,0,93.67,16.32Z" fill="#fff"/><path d="M96.47,14.78a2.25,2.25,0,0,1,.61-1.62,2.1,2.1,0,0,1,1.58-.64,2.06,2.06,0,0,1,1.56.64,2.44,2.44,0,0,1,0,3.25,2.06,2.06,0,0,1-1.56.64,2.1,2.1,0,0,1-1.58-.64A2.26,2.26,0,0,1,96.47,14.78Zm.8,0a1.57,1.57,0,0,0,.4,1.12,1.37,1.37,0,0,0,2,0,1.57,1.57,0,0,0,.4-1.12,1.54,1.54,0,0,0-.4-1.1,1.34,1.34,0,0,0-2,0A1.54,1.54,0,0,0,97.27,14.78Z" fill="#fff"/><path d="M107.51,12.66l-1.38,4.25h-.81l-1.06-3.26-1.05,3.26h-.81L101,12.66h.84l.94,3.21h0l1.05-3.21h.82l1,3.21h0l.94-3.21Z" fill="#fff"/><path d="M108,12.66h.76v.59h0a1.49,1.49,0,0,1,.56-.52,1.64,1.64,0,0,1,.79-.21,1.56,1.56,0,0,1,1.2.45,1.77,1.77,0,0,1,.42,1.27v2.67H111V14.29a.93.93,0,0,0-1-1,1,1,0,0,0-.79.38,1.39,1.39,0,0,0-.33.93v2.35H108Z" fill="#fff"/><path d="M113.53,10.7v6.21h-.8V10.7Z" fill="#fff"/><path d="M114.21,14.78a2.26,2.26,0,0,1,.62-1.62,2.08,2.08,0,0,1,1.57-.64,2.06,2.06,0,0,1,1.56.64,2.22,2.22,0,0,1,.62,1.62,2.21,2.21,0,0,1-.62,1.63,2.06,2.06,0,0,1-1.56.64,2.08,2.08,0,0,1-1.57-.64A2.27,2.27,0,0,1,114.21,14.78Zm.8,0a1.57,1.57,0,0,0,.4,1.12,1.29,1.29,0,0,0,1,.42,1.32,1.32,0,0,0,1-.42,1.61,1.61,0,0,0,.4-1.12,1.58,1.58,0,0,0-.4-1.1,1.35,1.35,0,0,0-2,0A1.54,1.54,0,0,0,115,14.78Z" fill="#fff"/><path d="M120.93,12.52a2,2,0,0,1,1.4.47,1.69,1.69,0,0,1,.51,1.3v2.62h-.77v-.59h0a1.52,1.52,0,0,1-1.32.73,1.72,1.72,0,0,1-1.18-.42,1.33,1.33,0,0,1-.47-1,1.27,1.27,0,0,1,.5-1.05,2.1,2.1,0,0,1,1.33-.39,2.36,2.36,0,0,1,1.17.26v-.18a.92.92,0,0,0-.33-.71,1.13,1.13,0,0,0-.77-.29,1.23,1.23,0,0,0-1.06.57l-.7-.45A2,2,0,0,1,120.93,12.52Zm-1,3.09a.62.62,0,0,0,.26.52,1,1,0,0,0,.62.21,1.27,1.27,0,0,0,.9-.38,1.16,1.16,0,0,0,.39-.87,1.61,1.61,0,0,0-1-.3,1.34,1.34,0,0,0-.81.24A.67.67,0,0,0,119.9,15.61Z" fill="#fff"/><path d="M125.47,17.05a1.87,1.87,0,0,1-1.43-.66,2.37,2.37,0,0,1-.59-1.61,2.34,2.34,0,0,1,.59-1.6,1.9,1.9,0,0,1,2.29-.46,1.39,1.39,0,0,1,.59.53h0l0-.59v-2h.8v6.21H127v-.59h0a1.39,1.39,0,0,1-.59.53A1.88,1.88,0,0,1,125.47,17.05Zm.13-.73a1.24,1.24,0,0,0,1-.42,1.61,1.61,0,0,0,.39-1.12,1.59,1.59,0,0,0-.39-1.1,1.3,1.3,0,0,0-1.93,0,1.76,1.76,0,0,0,0,2.21A1.23,1.23,0,0,0,125.6,16.32Z" fill="#fff"/><path d="M70.51,20.52h2.77L78.12,33.4H75.44l-1.06-3.07h-5L68.35,33.4H65.67Zm3.08,7.57-1.15-3.22L72,23.31h-.14l-.47,1.56-1.15,3.22Z" fill="#fff"/><path d="M81.42,25.74h.14a3,3,0,0,1,1.12-1.06,3.35,3.35,0,0,1,1.6-.38,3.69,3.69,0,0,1,1.46.27,2.64,2.64,0,0,1,1,.76,3.45,3.45,0,0,1,.62,1.19,5.63,5.63,0,0,1,.2,1.54V33.4H85.24v-5a2.06,2.06,0,0,0-.43-1.42,1.61,1.61,0,0,0-1.23-.46,1.71,1.71,0,0,0-.86.21,2.09,2.09,0,0,0-.63.56,2.55,2.55,0,0,0-.39.83,3.68,3.68,0,0,0-.14,1V33.4H79.2V24.58h2.22Z" fill="#fff"/><path d="M96,32.34h-.14a2.76,2.76,0,0,1-1,1,3.38,3.38,0,0,1-1.69.39,3.89,3.89,0,0,1-1.61-.35,4.3,4.3,0,0,1-1.35-1,4.7,4.7,0,0,1-.93-1.49A5,5,0,0,1,88.89,29a5.08,5.08,0,0,1,.34-1.89,4.66,4.66,0,0,1,.93-1.48,4.15,4.15,0,0,1,1.35-1,3.74,3.74,0,0,1,1.61-.35,3.38,3.38,0,0,1,1.69.39,2.68,2.68,0,0,1,1,1H96l-.14-1.26V20.52h2.36V33.4H96Zm-2.36-.83a2.29,2.29,0,0,0,.9-.17,2.17,2.17,0,0,0,.74-.49,2.41,2.41,0,0,0,.52-.79A2.62,2.62,0,0,0,96,29a2.57,2.57,0,0,0-.2-1.06,2.41,2.41,0,0,0-.52-.79,2,2,0,0,0-.74-.49,2.32,2.32,0,0,0-1.79,0,2.23,2.23,0,0,0-.74.51,2.49,2.49,0,0,0-.53.79,3,3,0,0,0,0,2.09,2.61,2.61,0,0,0,.53.79,2.2,2.2,0,0,0,.74.5A2.28,2.28,0,0,0,93.6,31.51Z" fill="#fff"/><path d="M100.05,24.58h2.21v1.23h.15a2.07,2.07,0,0,1,.43-.6,3.46,3.46,0,0,1,.6-.47,3.35,3.35,0,0,1,.72-.32,2.58,2.58,0,0,1,.77-.12,2.69,2.69,0,0,1,.8.1,1.71,1.71,0,0,1,.56.26l-.62,2.1a2.48,2.48,0,0,0-.48-.17,3,3,0,0,0-.64-.06,1.93,1.93,0,0,0-.88.19,1.85,1.85,0,0,0-.68.53,2.61,2.61,0,0,0-.43.81,3.18,3.18,0,0,0-.15,1V33.4h-2.36Z" fill="#fff"/><path d="M110.87,24.3a4.81,4.81,0,0,1,1.88.35,4.24,4.24,0,0,1,1.47,1,4.45,4.45,0,0,1,1,1.48,5.08,5.08,0,0,1,.35,1.89,5,5,0,0,1-.35,1.89,4.49,4.49,0,0,1-1,1.49,4.38,4.38,0,0,1-1.47,1,5.22,5.22,0,0,1-3.76,0,4.32,4.32,0,0,1-2.45-2.46,4.82,4.82,0,0,1-.35-1.89,4.89,4.89,0,0,1,.35-1.89,4.42,4.42,0,0,1,1-1.48,4.28,4.28,0,0,1,1.48-1A4.77,4.77,0,0,1,110.87,24.3Zm0,7.21a2.18,2.18,0,0,0,.87-.17,2.32,2.32,0,0,0,.75-.49,2.56,2.56,0,0,0,.51-.79,2.8,2.8,0,0,0,.19-1.07,2.74,2.74,0,0,0-.19-1.06,2.56,2.56,0,0,0-.51-.79,2.17,2.17,0,0,0-.75-.49,2.19,2.19,0,0,0-.87-.18,2.21,2.21,0,0,0-.89.18,2.09,2.09,0,0,0-.73.49,2.41,2.41,0,0,0-.52.79,2.94,2.94,0,0,0-.19,1.06,3,3,0,0,0,.19,1.07,2.41,2.41,0,0,0,.52.79,2.23,2.23,0,0,0,.73.49A2.21,2.21,0,0,0,110.87,31.51Z" fill="#fff"/><path d="M118.05,23.4a1.48,1.48,0,0,1-.59-.12A1.75,1.75,0,0,1,117,23a1.58,1.58,0,0,1-.33-.48,1.66,1.66,0,0,1,0-1.19,1.58,1.58,0,0,1,.33-.48,1.75,1.75,0,0,1,.48-.32,1.48,1.48,0,0,1,.59-.12,1.5,1.5,0,0,1,1.08.44,1.51,1.51,0,0,1,0,2.15A1.5,1.5,0,0,1,118.05,23.4Zm-1.17,10V24.58h2.36V33.4Z" fill="#fff"/><path d="M127.73,32.34h-.14a2.76,2.76,0,0,1-1,1,3.38,3.38,0,0,1-1.69.39,3.89,3.89,0,0,1-1.61-.35,4.3,4.3,0,0,1-1.35-1,4.7,4.7,0,0,1-.93-1.49,5,5,0,0,1-.34-1.89A5.08,5.08,0,0,1,121,27.1a4.66,4.66,0,0,1,.93-1.48,4.15,4.15,0,0,1,1.35-1,3.74,3.74,0,0,1,1.61-.35,3.38,3.38,0,0,1,1.69.39,2.68,2.68,0,0,1,1,1h.14l-.14-1.26V20.52H130V33.4h-2.22Zm-2.35-.83a2.27,2.27,0,0,0,.89-.17,2.17,2.17,0,0,0,.74-.49,2.61,2.61,0,0,0,.53-.79,2.8,2.8,0,0,0,.19-1.07,2.74,2.74,0,0,0-.19-1.06,2.61,2.61,0,0,0-.53-.79,2,2,0,0,0-.74-.49,2.32,2.32,0,0,0-1.79,0,2.23,2.23,0,0,0-.74.51,2.49,2.49,0,0,0-.53.79,3,3,0,0,0,0,2.09,2.61,2.61,0,0,0,.53.79,2.2,2.2,0,0,0,.74.5A2.3,2.3,0,0,0,125.38,31.51Z" fill="#fff"/></svg>